trial_2_ID.mot
nRows=7
nColumns=42

name trial_2_ID.mot
datacolumns 42
datarows 7
range 3.9000000000 3.9600000000
endheader
time	pelvis_tilt_moment	pelvis_list_moment	pelvis_rotation_moment	pelvis_tx_force	pelvis_ty_force	pelvis_tz_force	hip_flexion_r_moment	hip_adduction_r_moment	hip_rotation_r_moment	knee_angle_r_moment	knee_vv_r_moment	knee_rot_r_moment	ankle_angle_r_moment	subtalar_angle_r_moment	mtp_angle_r_moment	hip_flexion_l_moment	hip_adduction_l_moment	hip_rotation_l_moment	knee_angle_l_moment	knee_vv_l_moment	knee_rot_l_moment	ankle_angle_l_moment	subtalar_angle_l_moment	mtp_angle_l_moment	lumbar_extension_moment	lumbar_bending_moment	lumbar_rotation_moment	arm_flex_r_moment	arm_add_r_moment	arm_rot_r_moment	elbow_flex_r_moment	pro_sup_r_moment	wrist_flex_r_moment	wrist_dev_r_moment	arm_flex_l_moment	arm_add_l_moment	arm_rot_l_moment	elbow_flex_l_moment	pro_sup_l_moment	wrist_flex_l_moment	wrist_dev_l_moment
        3.9000000000	        7.5789380400	       11.1462411500	        3.9305262500	        8.0477531000	       10.1713636400	       -6.6754842900	        6.8202820700	        0.2659585800	       -0.6590188300	        1.6547364600	        0.7161126400	        0.1157249400	        0.5579982000	       -0.0125523900	        0.0228559400	       -5.4560291600	      -55.9637356900	        2.6417244500	        4.0133825800	       28.1561488600	        1.7022479600	      -14.3348764300	        5.8910997500	        0.0289025700	       20.9108032100	        0.8528352700	        5.7185227900	        0.3282736500	       -2.1234936800	       -0.0707526300	       -0.3490252200	       -0.0091114500	       -0.0438501100	        0.0103234500	       -1.3475835800	       -0.9979486800	       -0.0276276800	        0.0290274300	       -0.0052815900	        0.0275674600	       -0.0029059500	
        3.9100000000	        6.1533285300	       10.2258536600	        3.8796754400	       10.2278357900	        6.5284647200	       -6.9995940800	        6.4380426900	       -0.2211952600	       -0.3495895000	        1.2463771300	        0.3809008400	        0.0872691500	        0.5480286100	       -0.0359197500	        0.0221075100	       -4.7715669400	      -55.6323773200	        2.3403037100	        3.2348165800	       27.8668352200	        1.8707412200	      -15.5014486700	        5.8593430500	        0.0286209300	       18.9261118000	        0.0914107500	        5.7566550500	        0.5203814100	       -2.0581508200	       -0.0655436500	       -0.3081594800	       -0.0101836400	       -0.0482341500	        0.0058478500	       -1.3439332300	       -1.0677987700	       -0.0253140300	        0.0291517900	       -0.0044989600	        0.0257732500	       -0.0035759400	
        3.9200000000	        4.6120076200	        8.8743565300	        3.8991491100	       12.9412175600	        2.4793034000	       -6.8914093900	        6.1810666100	       -0.7539752000	       -0.0026619000	        0.8739879100	        0.0040451600	        0.0555020200	        0.5629700000	       -0.0657642300	        0.0223127600	       -4.1129553700	      -55.1342778100	        2.0589812100	        2.4515710900	       27.5107470600	        2.0186152900	      -16.6960869600	        5.8440459500	        0.0283698200	       16.7280062500	       -0.7354902300	        5.6868427600	        0.7040682700	       -1.9843075300	       -0.0613762700	       -0.2628464600	       -0.0114494100	       -0.0518879600	        0.0009189600	       -1.3275314000	       -1.1296943700	       -0.0182530600	        0.0232424700	       -0.0027599200	        0.0241383600	       -0.0027935500	
        3.9300000000	        2.9422389500	        7.1865137900	        4.0107763500	       15.7369773100	       -1.3385889300	       -6.2034730900	        5.9985361700	       -1.3510561500	        0.3896686000	        0.5252622100	       -0.4249393500	        0.0212588500	        0.5998715900	       -0.1016473000	        0.0233918100	       -3.5013681700	      -54.4954603300	        1.8006890800	        1.6541372300	       27.1029779800	        2.1469651200	      -17.9428848500	        5.8490238700	        0.0281657600	       14.4680825900	       -1.5465365800	        5.5568162000	        0.8705034800	       -1.9062904800	       -0.0576565200	       -0.2158448100	       -0.0127158400	       -0.0546306700	       -0.0041677900	       -1.3041307700	       -1.1755322800	       -0.0057868400	        0.0128437100	       -0.0001541100	        0.0231482300	       -0.0005348500	
        3.9400000000	        1.1264666700	        5.3127502900	        4.2103907400	       18.1754424100	       -4.3958153300	       -4.8581152500	        5.8307540400	       -2.0186602700	        0.8242952800	        0.1859367300	       -0.9055432800	       -0.0138539800	        0.6555845800	       -0.1424541500	        0.0252782000	       -2.9622883500	      -53.7616294000	        1.5639485700	        0.8268376400	       26.6647603900	        2.2608081800	      -19.2730699600	        5.8769595300	        0.0280143600	       12.2849922600	       -2.2502693200	        5.4145398400	        1.0140912000	       -1.8295408000	       -0.0539085100	       -0.1698303400	       -0.0138295200	       -0.0564315700	       -0.0091471000	       -1.2790261100	       -1.1989333300	        0.0123396200	       -0.0000406000	        0.0031305200	        0.0231990600	        0.0030605300	
        3.9500000000	       -0.8358864300	        3.4105553200	        4.4709199000	       19.8797824700	       -6.3246449400	       -2.8819373900	        5.6260424000	       -2.7487703300	        1.2853103200	       -0.1557795800	       -1.4240613700	       -0.0474206300	        0.7270508200	       -0.1863497900	        0.0279212800	       -2.5207312600	      -52.9844329600	        1.3434600900	       -0.0486001300	       26.2176116600	        2.3678281800	      -20.7213112900	        5.9293547400	        0.0279140400	       10.2969656900	       -2.7707219100	        5.2969310700	        1.1318840500	       -1.7600490900	       -0.0498591700	       -0.1273531400	       -0.0146931100	       -0.0574047400	       -0.0137829200	       -1.2561396100	       -1.1961546800	        0.0358937700	       -0.0132503200	        0.0068323600	        0.0245228800	        0.0077151700	
        3.9600000000	       -2.9122626000	        1.6192315900	        4.7461292800	       20.5707162600	       -6.9434398800	       -0.4217685000	        5.3495054400	       -3.5149690900	        1.7434445500	       -0.5076499000	       -1.9517481500	       -0.0762205000	        0.8112037400	       -0.2307123800	        0.0312761000	       -2.1941792900	      -52.2129718400	        1.1314036500	       -0.9882059200	       25.7799757600	        2.4769032800	      -22.3211118700	        6.0064891800	        0.0278588700	        8.5979085700	       -3.0620005100	        5.2233737800	        1.2228342200	       -1.7032849700	       -0.0454635900	       -0.0906367700	       -0.0152705300	       -0.0577680300	       -0.0178793100	       -1.2375033400	       -1.1670182100	        0.0640232300	       -0.0248754500	        0.0106462700	        0.0271242100	        0.0130637500	
